<?xml version="1.0" encoding="utf-8"?>
<!-- Generator: Adobe Illustrator 16.0.0, SVG Export Plug-In . SVG Version: 6.00 Build 0)  -->
<!DOCTYPE svg PUBLIC "-//W3C//DTD SVG 1.1//EN" "http://www.w3.org/Graphics/SVG/1.1/DTD/svg11.dtd">
<svg version="1.1" id="Layer_1" xmlns="http://www.w3.org/2000/svg" xmlns:xlink="http://www.w3.org/1999/xlink" x="0px" y="0px"
	 width="134px" height="93px" viewBox="0 0 134 93" enable-background="new 0 0 134 93" xml:space="preserve">
<path d="M32.32,55.586c0-0.115,0.095-0.21,0.212-0.21h20.815c0.117,0,0.212,0.095,0.212,0.21v3.78c0,0.114-0.095,0.21-0.212,0.21
	H32.533c-0.117,0-0.212-0.096-0.212-0.21L32.32,55.586L32.32,55.586z"/>
<path d="M32.32,35.786c0-0.116,0.095-0.21,0.212-0.21h20.815c0.117,0,0.212,0.094,0.212,0.21v3.78c0,0.116-0.095,0.21-0.212,0.21
	H32.533c-0.117,0-0.212-0.094-0.212-0.21L32.32,35.786L32.32,35.786z"/>
<path d="M35.14,49.1c0-0.078,0.042-0.144,0.092-0.144h18.177c0.05,0,0.092,0.063,0.092,0.144v2.592c0,0.08-0.042,0.146-0.092,0.146
	H35.232c-0.05,0-0.092-0.063-0.092-0.146V49.1z"/>
<path d="M35.14,43.46c0-0.08,0.042-0.144,0.092-0.144h18.177c0.05,0,0.092,0.064,0.092,0.144v2.592c0,0.08-0.042,0.144-0.092,0.144
	H35.232c-0.05,0-0.092-0.064-0.092-0.144V43.46z"/>
<path d="M98.021,61.216c0-0.077,0.06-0.14,0.133-0.14h3.093c0.073,0,0.134,0.062,0.134,0.14v1.279c0,0.078-0.061,0.141-0.134,0.141
	h-3.093c-0.073,0-0.133-0.062-0.133-0.141V61.216z"/>
<path d="M98.021,58.518c0-0.078,0.06-0.142,0.133-0.142h3.093c0.073,0,0.134,0.062,0.134,0.142v1.278c0,0.077-0.061,0.14-0.134,0.14
	h-3.093c-0.073,0-0.133-0.062-0.133-0.14V58.518z"/>
<path d="M98.021,55.876c0-0.077,0.06-0.14,0.133-0.14h3.093c0.073,0,0.134,0.062,0.134,0.14v1.278c0,0.078-0.061,0.142-0.134,0.142
	h-3.093c-0.073,0-0.133-0.062-0.133-0.142V55.876z"/>
<path d="M90.641,61.216c0-0.077,0.061-0.14,0.135-0.14h3.092c0.074,0,0.134,0.062,0.134,0.14v1.279c0,0.078-0.06,0.141-0.134,0.141
	h-3.092c-0.074,0-0.135-0.062-0.135-0.141V61.216z"/>
<path d="M95.561,32.665c0-0.215,0.17-0.389,0.379-0.389h1.764c0.209,0,0.378,0.174,0.378,0.389v2.103
	c0,0.215-0.169,0.389-0.378,0.389h-1.764c-0.209,0-0.379-0.174-0.379-0.389V32.665z"/>
<path d="M90.58,32.665c0-0.215,0.17-0.389,0.378-0.389h1.765c0.209,0,0.379,0.174,0.379,0.389v2.103c0,0.215-0.17,0.389-0.379,0.389
	h-1.765c-0.208,0-0.378-0.174-0.378-0.389V32.665z"/>
<path d="M99.641,34.28c0-0.08,0.064-0.144,0.145-0.144h2.592c0.08,0,0.145,0.064,0.145,0.144v2.592c0,0.079-0.063,0.144-0.145,0.144
	h-2.592c-0.079,0-0.145-0.064-0.145-0.144V34.28z"/>
<path d="M81.521,60.561c0-0.08,0.063-0.145,0.144-0.145h2.593c0.079,0,0.145,0.064,0.145,0.145v2.592
	c0,0.08-0.064,0.145-0.145,0.145h-2.593c-0.079,0-0.144-0.064-0.144-0.145V60.561z"/>
<path d="M88,36.86c0-0.08,0.068-0.144,0.152-0.144h1.017c0.083,0,0.151,0.064,0.151,0.144v4.512c0,0.079-0.068,0.144-0.151,0.144
	h-1.017c-0.084,0-0.152-0.064-0.152-0.144V36.86z"/>
<path d="M80.801,53c0-0.08,0.067-0.145,0.151-0.145h1.017c0.084,0,0.151,0.063,0.151,0.145v4.512c0,0.08-0.067,0.146-0.151,0.146
	h-1.017c-0.084,0-0.151-0.064-0.151-0.146V53z"/>
<path d="M77.262,53c0-0.08,0.066-0.145,0.15-0.145h1.018c0.084,0,0.15,0.063,0.15,0.145v4.512c0,0.08-0.066,0.146-0.15,0.146h-1.018
	c-0.084,0-0.15-0.064-0.15-0.146V53z"/>
<path fill="none" d="M77.262,53c0-0.08,0.066-0.145,0.15-0.145h1.018c0.084,0,0.15,0.063,0.15,0.145v4.512
	c0,0.08-0.066,0.146-0.15,0.146h-1.018c-0.084,0-0.15-0.064-0.15-0.146V53z"/>
<path d="M70.061,36.86c0-0.08,0.068-0.144,0.151-0.144h1.017c0.084,0,0.151,0.064,0.151,0.144v4.512
	c0,0.079-0.067,0.144-0.151,0.144h-1.017c-0.083,0-0.151-0.064-0.151-0.144V36.86z"/>
<path d="M73.66,53c0-0.08,0.068-0.145,0.152-0.145h1.016c0.084,0,0.152,0.063,0.152,0.145v4.512c0,0.08-0.068,0.146-0.152,0.146
	h-1.016c-0.084,0-0.152-0.064-0.152-0.146V53z"/>
<path d="M70.061,53c0-0.08,0.068-0.145,0.151-0.145h1.017c0.084,0,0.151,0.063,0.151,0.145v4.512c0,0.08-0.067,0.146-0.151,0.146
	h-1.017c-0.083,0-0.151-0.064-0.151-0.146V53z"/>
<path d="M66.46,36.86c0-0.08,0.068-0.144,0.152-0.144h1.016c0.084,0,0.151,0.064,0.151,0.144v4.512c0,0.079-0.067,0.144-0.151,0.144
	h-1.016c-0.084,0-0.152-0.064-0.152-0.144V36.86z"/>
<path d="M66.46,53c0-0.08,0.068-0.145,0.152-0.145h1.016c0.084,0,0.151,0.063,0.151,0.145v4.512c0,0.08-0.067,0.146-0.151,0.146
	h-1.016c-0.084,0-0.152-0.064-0.152-0.146V53z"/>
<line fill="none" stroke="#000000" stroke-width="0.72" stroke-linecap="round" stroke-linejoin="round" stroke-miterlimit="10" x1="99.521" y1="46.256" x2="98.801" y2="44.636"/>
<line fill="none" stroke="#000000" stroke-width="0.72" stroke-linecap="round" stroke-linejoin="round" stroke-miterlimit="10" x1="98.801" y1="44.636" x2="97.54" y2="43.376"/>
<line fill="none" stroke="#000000" stroke-width="0.72" stroke-linecap="round" stroke-linejoin="round" stroke-miterlimit="10" x1="97.54" y1="43.376" x2="95.92" y2="42.716"/>
<line fill="none" stroke="#000000" stroke-width="0.72" stroke-linecap="round" stroke-linejoin="round" stroke-miterlimit="10" x1="95.92" y1="42.716" x2="94.12" y2="42.716"/>
<line fill="none" stroke="#000000" stroke-width="0.72" stroke-linecap="round" stroke-linejoin="round" stroke-miterlimit="10" x1="94.12" y1="42.716" x2="92.5" y2="43.376"/>
<line fill="none" stroke="#000000" stroke-width="0.72" stroke-linecap="round" stroke-linejoin="round" stroke-miterlimit="10" x1="92.5" y1="43.376" x2="91.24" y2="44.636"/>
<line fill="none" stroke="#000000" stroke-width="0.72" stroke-linecap="round" stroke-linejoin="round" stroke-miterlimit="10" x1="91.24" y1="44.636" x2="90.521" y2="46.256"/>
<line fill="none" stroke="#000000" stroke-width="0.72" stroke-linecap="round" stroke-linejoin="round" stroke-miterlimit="10" x1="90.521" y1="46.256" x2="90.521" y2="48.057"/>
<line fill="none" stroke="#000000" stroke-width="0.72" stroke-linecap="round" stroke-linejoin="round" stroke-miterlimit="10" x1="90.521" y1="48.057" x2="91.24" y2="49.676"/>
<line fill="none" stroke="#000000" stroke-width="0.72" stroke-linecap="round" stroke-linejoin="round" stroke-miterlimit="10" x1="91.24" y1="49.676" x2="92.5" y2="50.936"/>
<line fill="none" stroke="#000000" stroke-width="0.72" stroke-linecap="round" stroke-linejoin="round" stroke-miterlimit="10" x1="92.5" y1="50.936" x2="94.12" y2="51.656"/>
<line fill="none" stroke="#000000" stroke-width="0.72" stroke-linecap="round" stroke-linejoin="round" stroke-miterlimit="10" x1="94.12" y1="51.656" x2="94.96" y2="51.656"/>
<line fill="none" stroke="#000000" stroke-width="0.72" stroke-linecap="round" stroke-linejoin="round" stroke-miterlimit="10" x1="94.96" y1="51.656" x2="96.521" y2="53.156"/>
<line fill="none" stroke="#000000" stroke-width="0.72" stroke-linecap="round" stroke-linejoin="round" stroke-miterlimit="10" x1="96.521" y1="53.156" x2="96.521" y2="53.576"/>
<line fill="none" stroke="#000000" stroke-width="0.72" stroke-linecap="round" stroke-linejoin="round" stroke-miterlimit="10" x1="96.521" y1="53.576" x2="96.04" y2="54.057"/>
<line fill="none" stroke="#000000" stroke-width="0.72" stroke-linecap="round" stroke-linejoin="round" stroke-miterlimit="10" x1="96.04" y1="54.057" x2="95.439" y2="53.516"/>
<line fill="none" stroke="#000000" stroke-width="0.72" stroke-linecap="round" stroke-linejoin="round" stroke-miterlimit="10" x1="95.439" y1="53.516" x2="94.42" y2="53.096"/>
<line fill="none" stroke="#000000" stroke-width="0.72" stroke-linecap="round" stroke-linejoin="round" stroke-miterlimit="10" x1="94.42" y1="53.096" x2="91.96" y2="53.096"/>
<line fill="none" stroke="#000000" stroke-width="0.72" stroke-linecap="round" stroke-linejoin="round" stroke-miterlimit="10" x1="91.96" y1="53.096" x2="91.96" y2="52.436"/>
<line fill="none" stroke="#000000" stroke-width="0.72" stroke-linecap="round" stroke-linejoin="round" stroke-miterlimit="10" x1="91.96" y1="52.436" x2="91.54" y2="51.416"/>
<line fill="none" stroke="#000000" stroke-width="0.72" stroke-linecap="round" stroke-linejoin="round" stroke-miterlimit="10" x1="91.54" y1="51.416" x2="90.762" y2="50.636"/>
<line fill="none" stroke="#000000" stroke-width="0.72" stroke-linecap="round" stroke-linejoin="round" stroke-miterlimit="10" x1="90.762" y1="50.636" x2="89.74" y2="50.216"/>
<line fill="none" stroke="#000000" stroke-width="0.72" stroke-linecap="round" stroke-linejoin="round" stroke-miterlimit="10" x1="89.74" y1="50.216" x2="87.641" y2="50.216"/>
<line fill="none" stroke="#000000" stroke-width="0.72" stroke-linecap="round" stroke-linejoin="round" stroke-miterlimit="10" x1="87.641" y1="50.216" x2="86.859" y2="50.516"/>
<line fill="none" stroke="#000000" stroke-width="0.72" stroke-linecap="round" stroke-linejoin="round" stroke-miterlimit="10" x1="86.859" y1="50.516" x2="86.141" y2="50.216"/>
<line fill="none" stroke="#000000" stroke-width="0.72" stroke-linecap="round" stroke-linejoin="round" stroke-miterlimit="10" x1="86.141" y1="50.216" x2="84.04" y2="50.216"/>
<line fill="none" stroke="#000000" stroke-width="0.72" stroke-linecap="round" stroke-linejoin="round" stroke-miterlimit="10" x1="84.04" y1="50.216" x2="83.262" y2="50.516"/>
<line fill="none" stroke="#000000" stroke-width="0.72" stroke-linecap="round" stroke-linejoin="round" stroke-miterlimit="10" x1="83.262" y1="50.516" x2="82.54" y2="50.216"/>
<line fill="none" stroke="#000000" stroke-width="0.72" stroke-linecap="round" stroke-linejoin="round" stroke-miterlimit="10" x1="82.54" y1="50.216" x2="80.439" y2="50.216"/>
<line fill="none" stroke="#000000" stroke-width="0.72" stroke-linecap="round" stroke-linejoin="round" stroke-miterlimit="10" x1="80.439" y1="50.216" x2="79.42" y2="50.636"/>
<line fill="none" stroke="#000000" stroke-width="0.72" stroke-linecap="round" stroke-linejoin="round" stroke-miterlimit="10" x1="79.42" y1="50.636" x2="78.641" y2="51.416"/>
<line fill="none" stroke="#000000" stroke-width="0.72" stroke-linecap="round" stroke-linejoin="round" stroke-miterlimit="10" x1="78.641" y1="51.416" x2="78.221" y2="52.436"/>
<line fill="none" stroke="#000000" stroke-width="0.72" stroke-linecap="round" stroke-linejoin="round" stroke-miterlimit="10" x1="78.221" y1="52.436" x2="78.221" y2="58.076"/>
<line fill="none" stroke="#000000" stroke-width="0.72" stroke-linecap="round" stroke-linejoin="round" stroke-miterlimit="10" x1="78.221" y1="58.076" x2="78.279" y2="58.195"/>
<line fill="none" stroke="#000000" stroke-width="0.72" stroke-linecap="round" stroke-linejoin="round" stroke-miterlimit="10" x1="78.279" y1="58.195" x2="78.279" y2="59.336"/>
<line fill="none" stroke="#000000" stroke-width="0.72" stroke-linecap="round" stroke-linejoin="round" stroke-miterlimit="10" x1="78.279" y1="59.336" x2="78.762" y2="60.477"/>
<line fill="none" stroke="#000000" stroke-width="0.72" stroke-linecap="round" stroke-linejoin="round" stroke-miterlimit="10" x1="78.762" y1="60.477" x2="78.939" y2="60.656"/>
<line fill="none" stroke="#000000" stroke-width="0.72" stroke-linecap="round" stroke-linejoin="round" stroke-miterlimit="10" x1="78.939" y1="60.656" x2="78.939" y2="63.477"/>
<line fill="none" stroke="#000000" stroke-width="0.72" stroke-linecap="round" stroke-linejoin="round" stroke-miterlimit="10" x1="78.939" y1="63.477" x2="68.74" y2="63.477"/>
<line fill="none" stroke="#000000" stroke-width="0.72" stroke-linecap="round" stroke-linejoin="round" stroke-miterlimit="10" x1="68.74" y1="63.477" x2="69.041" y2="62.756"/>
<line fill="none" stroke="#000000" stroke-width="0.72" stroke-linecap="round" stroke-linejoin="round" stroke-miterlimit="10" x1="69.041" y1="62.756" x2="69.041" y2="60.956"/>
<line fill="none" stroke="#000000" stroke-width="0.72" stroke-linecap="round" stroke-linejoin="round" stroke-miterlimit="10" x1="69.041" y1="60.956" x2="68.68" y2="60.057"/>
<line fill="none" stroke="#000000" stroke-width="0.72" stroke-linecap="round" stroke-linejoin="round" stroke-miterlimit="10" x1="68.68" y1="60.057" x2="68.92" y2="59.936"/>
<line fill="none" stroke="#000000" stroke-width="0.72" stroke-linecap="round" stroke-linejoin="round" stroke-miterlimit="10" x1="68.92" y1="59.936" x2="69.641" y2="60.296"/>
<line fill="none" stroke="#000000" stroke-width="0.72" stroke-linecap="round" stroke-linejoin="round" stroke-miterlimit="10" x1="69.641" y1="60.296" x2="71.74" y2="60.296"/>
<line fill="none" stroke="#000000" stroke-width="0.72" stroke-linecap="round" stroke-linejoin="round" stroke-miterlimit="10" x1="71.74" y1="60.296" x2="72.521" y2="59.936"/>
<line fill="none" stroke="#000000" stroke-width="0.72" stroke-linecap="round" stroke-linejoin="round" stroke-miterlimit="10" x1="72.521" y1="59.936" x2="73.24" y2="60.296"/>
<line fill="none" stroke="#000000" stroke-width="0.72" stroke-linecap="round" stroke-linejoin="round" stroke-miterlimit="10" x1="73.24" y1="60.296" x2="75.341" y2="60.296"/>
<line fill="none" stroke="#000000" stroke-width="0.72" stroke-linecap="round" stroke-linejoin="round" stroke-miterlimit="10" x1="75.341" y1="60.296" x2="76.359" y2="59.876"/>
<line fill="none" stroke="#000000" stroke-width="0.72" stroke-linecap="round" stroke-linejoin="round" stroke-miterlimit="10" x1="76.359" y1="59.876" x2="77.141" y2="59.096"/>
<line fill="none" stroke="#000000" stroke-width="0.72" stroke-linecap="round" stroke-linejoin="round" stroke-miterlimit="10" x1="77.141" y1="59.096" x2="77.561" y2="58.076"/>
<line fill="none" stroke="#000000" stroke-width="0.72" stroke-linecap="round" stroke-linejoin="round" stroke-miterlimit="10" x1="77.561" y1="58.076" x2="77.561" y2="52.436"/>
<line fill="none" stroke="#000000" stroke-width="0.72" stroke-linecap="round" stroke-linejoin="round" stroke-miterlimit="10" x1="77.561" y1="52.436" x2="77.5" y2="52.256"/>
<line fill="none" stroke="#000000" stroke-width="0.72" stroke-linecap="round" stroke-linejoin="round" stroke-miterlimit="10" x1="77.5" y1="52.256" x2="77.5" y2="49.736"/>
<line fill="none" stroke="#000000" stroke-width="0.72" stroke-linecap="round" stroke-linejoin="round" stroke-miterlimit="10" x1="77.5" y1="49.736" x2="77.021" y2="48.536"/>
<line fill="none" stroke="#000000" stroke-width="0.72" stroke-linecap="round" stroke-linejoin="round" stroke-miterlimit="10" x1="77.021" y1="48.536" x2="76.12" y2="47.636"/>
<line fill="none" stroke="#000000" stroke-width="0.72" stroke-linecap="round" stroke-linejoin="round" stroke-miterlimit="10" x1="76.12" y1="47.636" x2="74.5" y2="46.076"/>
<line fill="none" stroke="#000000" stroke-width="0.72" stroke-linecap="round" stroke-linejoin="round" stroke-miterlimit="10" x1="74.5" y1="46.076" x2="73.602" y2="45.176"/>
<line fill="none" stroke="#000000" stroke-width="0.72" stroke-linecap="round" stroke-linejoin="round" stroke-miterlimit="10" x1="73.602" y1="45.176" x2="72.46" y2="44.696"/>
<line fill="none" stroke="#000000" stroke-width="0.72" stroke-linecap="round" stroke-linejoin="round" stroke-miterlimit="10" x1="72.46" y1="44.696" x2="63.16" y2="44.696"/>
<line fill="none" stroke="#000000" stroke-width="0.72" stroke-linecap="round" stroke-linejoin="round" stroke-miterlimit="10" x1="63.16" y1="44.696" x2="63.16" y2="41.276"/>
<line fill="none" stroke="#000000" stroke-width="0.72" stroke-linecap="round" stroke-linejoin="round" stroke-miterlimit="10" x1="63.16" y1="41.276" x2="63.28" y2="41.336"/>
<line fill="none" stroke="#000000" stroke-width="0.72" stroke-linecap="round" stroke-linejoin="round" stroke-miterlimit="10" x1="63.28" y1="41.336" x2="63.82" y2="41.336"/>
<line fill="none" stroke="#000000" stroke-width="0.72" stroke-linecap="round" stroke-linejoin="round" stroke-miterlimit="10" x1="63.82" y1="41.336" x2="63.82" y2="41.936"/>
<line fill="none" stroke="#000000" stroke-width="0.72" stroke-linecap="round" stroke-linejoin="round" stroke-miterlimit="10" x1="63.82" y1="41.936" x2="64.24" y2="42.896"/>
<line fill="none" stroke="#000000" stroke-width="0.72" stroke-linecap="round" stroke-linejoin="round" stroke-miterlimit="10" x1="64.24" y1="42.896" x2="65.021" y2="43.676"/>
<line fill="none" stroke="#000000" stroke-width="0.72" stroke-linecap="round" stroke-linejoin="round" stroke-miterlimit="10" x1="65.021" y1="43.676" x2="66.041" y2="44.096"/>
<line fill="none" stroke="#000000" stroke-width="0.72" stroke-linecap="round" stroke-linejoin="round" stroke-miterlimit="10" x1="66.041" y1="44.096" x2="68.141" y2="44.096"/>
<line fill="none" stroke="#000000" stroke-width="0.72" stroke-linecap="round" stroke-linejoin="round" stroke-miterlimit="10" x1="68.141" y1="44.096" x2="68.92" y2="43.796"/>
<line fill="none" stroke="#000000" stroke-width="0.72" stroke-linecap="round" stroke-linejoin="round" stroke-miterlimit="10" x1="68.92" y1="43.796" x2="69.641" y2="44.096"/>
<line fill="none" stroke="#000000" stroke-width="0.72" stroke-linecap="round" stroke-linejoin="round" stroke-miterlimit="10" x1="69.641" y1="44.096" x2="71.74" y2="44.096"/>
<line fill="none" stroke="#000000" stroke-width="0.72" stroke-linecap="round" stroke-linejoin="round" stroke-miterlimit="10" x1="71.74" y1="44.096" x2="72.521" y2="43.796"/>
<line fill="none" stroke="#000000" stroke-width="0.72" stroke-linecap="round" stroke-linejoin="round" stroke-miterlimit="10" x1="72.521" y1="43.796" x2="73.24" y2="44.096"/>
<line fill="none" stroke="#000000" stroke-width="0.72" stroke-linecap="round" stroke-linejoin="round" stroke-miterlimit="10" x1="73.24" y1="44.096" x2="75.341" y2="44.096"/>
<line fill="none" stroke="#000000" stroke-width="0.72" stroke-linecap="round" stroke-linejoin="round" stroke-miterlimit="10" x1="75.341" y1="44.096" x2="76.12" y2="43.796"/>
<line fill="none" stroke="#000000" stroke-width="0.72" stroke-linecap="round" stroke-linejoin="round" stroke-miterlimit="10" x1="76.12" y1="43.796" x2="76.841" y2="44.096"/>
<line fill="none" stroke="#000000" stroke-width="0.72" stroke-linecap="round" stroke-linejoin="round" stroke-miterlimit="10" x1="76.841" y1="44.096" x2="78.939" y2="44.096"/>
<line fill="none" stroke="#000000" stroke-width="0.72" stroke-linecap="round" stroke-linejoin="round" stroke-miterlimit="10" x1="78.939" y1="44.096" x2="79.721" y2="43.796"/>
<line fill="none" stroke="#000000" stroke-width="0.72" stroke-linecap="round" stroke-linejoin="round" stroke-miterlimit="10" x1="79.721" y1="43.796" x2="80.439" y2="44.096"/>
<line fill="none" stroke="#000000" stroke-width="0.72" stroke-linecap="round" stroke-linejoin="round" stroke-miterlimit="10" x1="80.439" y1="44.096" x2="82.54" y2="44.096"/>
<line fill="none" stroke="#000000" stroke-width="0.72" stroke-linecap="round" stroke-linejoin="round" stroke-miterlimit="10" x1="82.54" y1="44.096" x2="83.262" y2="43.796"/>
<line fill="none" stroke="#000000" stroke-width="0.72" stroke-linecap="round" stroke-linejoin="round" stroke-miterlimit="10" x1="83.262" y1="43.796" x2="84.04" y2="44.096"/>
<line fill="none" stroke="#000000" stroke-width="0.72" stroke-linecap="round" stroke-linejoin="round" stroke-miterlimit="10" x1="84.04" y1="44.096" x2="86.141" y2="44.096"/>
<line fill="none" stroke="#000000" stroke-width="0.72" stroke-linecap="round" stroke-linejoin="round" stroke-miterlimit="10" x1="86.141" y1="44.096" x2="86.859" y2="43.796"/>
<line fill="none" stroke="#000000" stroke-width="0.72" stroke-linecap="round" stroke-linejoin="round" stroke-miterlimit="10" x1="86.859" y1="43.796" x2="87.641" y2="44.096"/>
<line fill="none" stroke="#000000" stroke-width="0.72" stroke-linecap="round" stroke-linejoin="round" stroke-miterlimit="10" x1="87.641" y1="44.096" x2="89.74" y2="44.096"/>
<line fill="none" stroke="#000000" stroke-width="0.72" stroke-linecap="round" stroke-linejoin="round" stroke-miterlimit="10" x1="89.74" y1="44.096" x2="90.762" y2="43.676"/>
<line fill="none" stroke="#000000" stroke-width="0.72" stroke-linecap="round" stroke-linejoin="round" stroke-miterlimit="10" x1="90.762" y1="43.676" x2="91.54" y2="42.896"/>
<line fill="none" stroke="#000000" stroke-width="0.72" stroke-linecap="round" stroke-linejoin="round" stroke-miterlimit="10" x1="91.54" y1="42.896" x2="91.96" y2="41.936"/>
<line fill="none" stroke="#000000" stroke-width="0.72" stroke-linecap="round" stroke-linejoin="round" stroke-miterlimit="10" x1="91.96" y1="41.936" x2="91.96" y2="37.736"/>
<line fill="none" stroke="#000000" stroke-width="0.72" stroke-linecap="round" stroke-linejoin="round" stroke-miterlimit="10" x1="91.96" y1="37.736" x2="93.341" y2="37.736"/>
<line fill="none" stroke="#000000" stroke-width="0.72" stroke-linecap="round" stroke-linejoin="round" stroke-miterlimit="10" x1="93.341" y1="37.736" x2="94.301" y2="37.376"/>
<line fill="none" stroke="#000000" stroke-width="0.72" stroke-linecap="round" stroke-linejoin="round" stroke-miterlimit="10" x1="94.301" y1="37.376" x2="95.32" y2="37.736"/>
<line fill="none" stroke="#000000" stroke-width="0.72" stroke-linecap="round" stroke-linejoin="round" stroke-miterlimit="10" x1="95.32" y1="37.736" x2="97.24" y2="37.736"/>
<line fill="none" stroke="#000000" stroke-width="0.72" stroke-linecap="round" stroke-linejoin="round" stroke-miterlimit="10" x1="97.24" y1="37.736" x2="97.48" y2="38.396"/>
<line fill="none" stroke="#000000" stroke-width="0.72" stroke-linecap="round" stroke-linejoin="round" stroke-miterlimit="10" x1="97.48" y1="38.396" x2="98.262" y2="39.176"/>
<line fill="none" stroke="#000000" stroke-width="0.72" stroke-linecap="round" stroke-linejoin="round" stroke-miterlimit="10" x1="98.262" y1="39.176" x2="99.279" y2="39.596"/>
<line fill="none" stroke="#000000" stroke-width="0.72" stroke-linecap="round" stroke-linejoin="round" stroke-miterlimit="10" x1="99.279" y1="39.596" x2="102.939" y2="39.596"/>
<line fill="none" stroke="#000000" stroke-width="0.72" stroke-linecap="round" stroke-linejoin="round" stroke-miterlimit="10" x1="102.939" y1="39.596" x2="103.96" y2="39.176"/>
<line fill="none" stroke="#000000" stroke-width="0.72" stroke-linecap="round" stroke-linejoin="round" stroke-miterlimit="10" x1="103.96" y1="39.176" x2="104.561" y2="38.576"/>
<line fill="none" stroke="#000000" stroke-width="0.72" stroke-linecap="round" stroke-linejoin="round" stroke-miterlimit="10" x1="104.561" y1="38.576" x2="104.561" y2="53.516"/>
<line fill="none" stroke="#000000" stroke-width="0.72" stroke-linecap="round" stroke-linejoin="round" stroke-miterlimit="10" x1="104.561" y1="53.516" x2="104.021" y2="53.275"/>
<line fill="none" stroke="#000000" stroke-width="0.72" stroke-linecap="round" stroke-linejoin="round" stroke-miterlimit="10" x1="104.021" y1="53.275" x2="102.88" y2="53.275"/>
<line fill="none" stroke="#000000" stroke-width="0.72" stroke-linecap="round" stroke-linejoin="round" stroke-miterlimit="10" x1="102.88" y1="53.275" x2="102.88" y2="51.176"/>
<line fill="none" stroke="#000000" stroke-width="0.72" stroke-linecap="round" stroke-linejoin="round" stroke-miterlimit="10" x1="102.88" y1="51.176" x2="102.4" y2="50.036"/>
<line fill="none" stroke="#000000" stroke-width="0.72" stroke-linecap="round" stroke-linejoin="round" stroke-miterlimit="10" x1="102.4" y1="50.036" x2="101.5" y2="49.136"/>
<line fill="none" stroke="#000000" stroke-width="0.72" stroke-linecap="round" stroke-linejoin="round" stroke-miterlimit="10" x1="101.5" y1="49.136" x2="99.521" y2="47.096"/>
<line fill="none" stroke="#000000" stroke-width="0.72" stroke-linecap="round" stroke-linejoin="round" stroke-miterlimit="10" x1="99.521" y1="47.096" x2="99.521" y2="46.256"/>
<line fill="none" stroke="#000000" stroke-width="0.72" stroke-linecap="round" stroke-linejoin="round" stroke-miterlimit="10" x1="68.859" y1="63.296" x2="78.939" y2="63.296"/>
<line fill="none" stroke="#000000" stroke-width="0.72" stroke-linecap="round" stroke-linejoin="round" stroke-miterlimit="10" x1="69.041" y1="62.695" x2="78.939" y2="62.695"/>
<line fill="none" stroke="#000000" stroke-width="0.72" stroke-linecap="round" stroke-linejoin="round" stroke-miterlimit="10" x1="69.041" y1="62.036" x2="78.939" y2="62.036"/>
<line fill="none" stroke="#000000" stroke-width="0.72" stroke-linecap="round" stroke-linejoin="round" stroke-miterlimit="10" x1="69.041" y1="61.436" x2="78.939" y2="61.436"/>
<line fill="none" stroke="#000000" stroke-width="0.72" stroke-linecap="round" stroke-linejoin="round" stroke-miterlimit="10" x1="68.98" y1="60.775" x2="78.939" y2="60.775"/>
<line fill="none" stroke="#000000" stroke-width="0.72" stroke-linecap="round" stroke-linejoin="round" stroke-miterlimit="10" x1="68.74" y1="60.176" x2="69.4" y2="60.176"/>
<line fill="none" stroke="#000000" stroke-width="0.72" stroke-linecap="round" stroke-linejoin="round" stroke-miterlimit="10" x1="72.04" y1="60.176" x2="73" y2="60.176"/>
<line fill="none" stroke="#000000" stroke-width="0.72" stroke-linecap="round" stroke-linejoin="round" stroke-miterlimit="10" x1="75.641" y1="60.176" x2="78.641" y2="60.176"/>
<line fill="none" stroke="#000000" stroke-width="0.72" stroke-linecap="round" stroke-linejoin="round" stroke-miterlimit="10" x1="76.66" y1="59.516" x2="78.4" y2="59.516"/>
<line fill="none" stroke="#000000" stroke-width="0.72" stroke-linecap="round" stroke-linejoin="round" stroke-miterlimit="10" x1="77.2" y1="58.916" x2="78.279" y2="58.916"/>
<line fill="none" stroke="#000000" stroke-width="0.72" stroke-linecap="round" stroke-linejoin="round" stroke-miterlimit="10" x1="77.439" y1="58.256" x2="78.279" y2="58.256"/>
<line fill="none" stroke="#000000" stroke-width="0.72" stroke-linecap="round" stroke-linejoin="round" stroke-miterlimit="10" x1="77.561" y1="57.656" x2="78.221" y2="57.656"/>
<line fill="none" stroke="#000000" stroke-width="0.72" stroke-linecap="round" stroke-linejoin="round" stroke-miterlimit="10" x1="77.561" y1="56.996" x2="78.221" y2="56.996"/>
<line fill="none" stroke="#000000" stroke-width="0.72" stroke-linecap="round" stroke-linejoin="round" stroke-miterlimit="10" x1="77.561" y1="56.396" x2="78.221" y2="56.396"/>
<line fill="none" stroke="#000000" stroke-width="0.72" stroke-linecap="round" stroke-linejoin="round" stroke-miterlimit="10" x1="77.561" y1="55.736" x2="78.221" y2="55.736"/>
<line fill="none" stroke="#000000" stroke-width="0.72" stroke-linecap="round" stroke-linejoin="round" stroke-miterlimit="10" x1="77.561" y1="55.136" x2="78.221" y2="55.136"/>
<line fill="none" stroke="#000000" stroke-width="0.72" stroke-linecap="round" stroke-linejoin="round" stroke-miterlimit="10" x1="77.561" y1="54.477" x2="78.221" y2="54.477"/>
<line fill="none" stroke="#000000" stroke-width="0.72" stroke-linecap="round" stroke-linejoin="round" stroke-miterlimit="10" x1="77.561" y1="53.876" x2="78.221" y2="53.876"/>
<line fill="none" stroke="#000000" stroke-width="0.72" stroke-linecap="round" stroke-linejoin="round" stroke-miterlimit="10" x1="95.801" y1="53.876" x2="96.221" y2="53.876"/>
<line fill="none" stroke="#000000" stroke-width="0.72" stroke-linecap="round" stroke-linejoin="round" stroke-miterlimit="10" x1="77.561" y1="53.216" x2="78.221" y2="53.216"/>
<line fill="none" stroke="#000000" stroke-width="0.72" stroke-linecap="round" stroke-linejoin="round" stroke-miterlimit="10" x1="94.779" y1="53.216" x2="96.521" y2="53.216"/>
<line fill="none" stroke="#000000" stroke-width="0.72" stroke-linecap="round" stroke-linejoin="round" stroke-miterlimit="10" x1="102.88" y1="53.216" x2="104.561" y2="53.216"/>
<line fill="none" stroke="#000000" stroke-width="0.72" stroke-linecap="round" stroke-linejoin="round" stroke-miterlimit="10" x1="77.561" y1="52.616" x2="78.221" y2="52.616"/>
<line fill="none" stroke="#000000" stroke-width="0.72" stroke-linecap="round" stroke-linejoin="round" stroke-miterlimit="10" x1="91.96" y1="52.616" x2="95.98" y2="52.616"/>
<line fill="none" stroke="#000000" stroke-width="0.72" stroke-linecap="round" stroke-linejoin="round" stroke-miterlimit="10" x1="102.88" y1="52.616" x2="104.561" y2="52.616"/>
<line fill="none" stroke="#000000" stroke-width="0.72" stroke-linecap="round" stroke-linejoin="round" stroke-miterlimit="10" x1="77.5" y1="51.956" x2="78.4" y2="51.956"/>
<line fill="none" stroke="#000000" stroke-width="0.72" stroke-linecap="round" stroke-linejoin="round" stroke-miterlimit="10" x1="91.779" y1="51.956" x2="95.32" y2="51.956"/>
<line fill="none" stroke="#000000" stroke-width="0.72" stroke-linecap="round" stroke-linejoin="round" stroke-miterlimit="10" x1="102.88" y1="51.956" x2="104.561" y2="51.956"/>
<line fill="none" stroke="#000000" stroke-width="0.72" stroke-linecap="round" stroke-linejoin="round" stroke-miterlimit="10" x1="77.5" y1="51.355" x2="78.7" y2="51.355"/>
<line fill="none" stroke="#000000" stroke-width="0.72" stroke-linecap="round" stroke-linejoin="round" stroke-miterlimit="10" x1="91.48" y1="51.355" x2="93.46" y2="51.355"/>
<line fill="none" stroke="#000000" stroke-width="0.72" stroke-linecap="round" stroke-linejoin="round" stroke-miterlimit="10" x1="102.88" y1="51.355" x2="104.561" y2="51.355"/>
<line fill="none" stroke="#000000" stroke-width="0.72" stroke-linecap="round" stroke-linejoin="round" stroke-miterlimit="10" x1="77.5" y1="50.756" x2="79.301" y2="50.756"/>
<line fill="none" stroke="#000000" stroke-width="0.72" stroke-linecap="round" stroke-linejoin="round" stroke-miterlimit="10" x1="90.88" y1="50.756" x2="92.262" y2="50.756"/>
<line fill="none" stroke="#000000" stroke-width="0.72" stroke-linecap="round" stroke-linejoin="round" stroke-miterlimit="10" x1="102.7" y1="50.756" x2="104.561" y2="50.756"/>
<line fill="none" stroke="#000000" stroke-width="0.72" stroke-linecap="round" stroke-linejoin="round" stroke-miterlimit="10" x1="77.5" y1="50.096" x2="91.66" y2="50.096"/>
<line fill="none" stroke="#000000" stroke-width="0.72" stroke-linecap="round" stroke-linejoin="round" stroke-miterlimit="10" x1="102.46" y1="50.096" x2="104.561" y2="50.096"/>
<line fill="none" stroke="#000000" stroke-width="0.72" stroke-linecap="round" stroke-linejoin="round" stroke-miterlimit="10" x1="77.38" y1="49.496" x2="91.12" y2="49.496"/>
<line fill="none" stroke="#000000" stroke-width="0.72" stroke-linecap="round" stroke-linejoin="round" stroke-miterlimit="10" x1="101.859" y1="49.496" x2="104.561" y2="49.496"/>
<line fill="none" stroke="#000000" stroke-width="0.72" stroke-linecap="round" stroke-linejoin="round" stroke-miterlimit="10" x1="77.141" y1="48.836" x2="90.88" y2="48.836"/>
<line fill="none" stroke="#000000" stroke-width="0.72" stroke-linecap="round" stroke-linejoin="round" stroke-miterlimit="10" x1="101.262" y1="48.836" x2="104.561" y2="48.836"/>
<line fill="none" stroke="#000000" stroke-width="0.72" stroke-linecap="round" stroke-linejoin="round" stroke-miterlimit="10" x1="76.66" y1="48.236" x2="90.641" y2="48.236"/>
<line fill="none" stroke="#000000" stroke-width="0.72" stroke-linecap="round" stroke-linejoin="round" stroke-miterlimit="10" x1="100.602" y1="48.236" x2="104.561" y2="48.236"/>
<line fill="none" stroke="#000000" stroke-width="0.72" stroke-linecap="round" stroke-linejoin="round" stroke-miterlimit="10" x1="76.061" y1="47.576" x2="90.521" y2="47.576"/>
<line fill="none" stroke="#000000" stroke-width="0.72" stroke-linecap="round" stroke-linejoin="round" stroke-miterlimit="10" x1="100" y1="47.576" x2="104.561" y2="47.576"/>
<line fill="none" stroke="#000000" stroke-width="0.72" stroke-linecap="round" stroke-linejoin="round" stroke-miterlimit="10" x1="75.4" y1="46.976" x2="90.521" y2="46.976"/>
<line fill="none" stroke="#000000" stroke-width="0.72" stroke-linecap="round" stroke-linejoin="round" stroke-miterlimit="10" x1="99.521" y1="46.976" x2="104.561" y2="46.976"/>
<line fill="none" stroke="#000000" stroke-width="0.72" stroke-linecap="round" stroke-linejoin="round" stroke-miterlimit="10" x1="74.801" y1="46.316" x2="90.521" y2="46.316"/>
<line fill="none" stroke="#000000" stroke-width="0.72" stroke-linecap="round" stroke-linejoin="round" stroke-miterlimit="10" x1="99.521" y1="46.316" x2="104.561" y2="46.316"/>
<line fill="none" stroke="#000000" stroke-width="0.72" stroke-linecap="round" stroke-linejoin="round" stroke-miterlimit="10" x1="74.141" y1="45.716" x2="90.762" y2="45.716"/>
<line fill="none" stroke="#000000" stroke-width="0.72" stroke-linecap="round" stroke-linejoin="round" stroke-miterlimit="10" x1="99.279" y1="45.716" x2="104.561" y2="45.716"/>
<line fill="none" stroke="#000000" stroke-width="0.72" stroke-linecap="round" stroke-linejoin="round" stroke-miterlimit="10" x1="73.42" y1="45.056" x2="91.061" y2="45.056"/>
<line fill="none" stroke="#000000" stroke-width="0.72" stroke-linecap="round" stroke-linejoin="round" stroke-miterlimit="10" x1="98.98" y1="45.056" x2="104.561" y2="45.056"/>
<line fill="none" stroke="#000000" stroke-width="0.72" stroke-linecap="round" stroke-linejoin="round" stroke-miterlimit="10" x1="63.16" y1="44.456" x2="91.42" y2="44.456"/>
<line fill="none" stroke="#000000" stroke-width="0.72" stroke-linecap="round" stroke-linejoin="round" stroke-miterlimit="10" x1="98.62" y1="44.456" x2="104.561" y2="44.456"/>
<line fill="none" stroke="#000000" stroke-width="0.72" stroke-linecap="round" stroke-linejoin="round" stroke-miterlimit="10" x1="63.16" y1="43.796" x2="65.32" y2="43.796"/>
<line fill="none" stroke="#000000" stroke-width="0.72" stroke-linecap="round" stroke-linejoin="round" stroke-miterlimit="10" x1="68.92" y1="43.796" x2="68.98" y2="43.856"/>
<line fill="none" stroke="#000000" stroke-width="0.72" stroke-linecap="round" stroke-linejoin="round" stroke-miterlimit="10" x1="72.521" y1="43.796" x2="72.58" y2="43.856"/>
<line fill="none" stroke="#000000" stroke-width="0.72" stroke-linecap="round" stroke-linejoin="round" stroke-miterlimit="10" x1="76.12" y1="43.796" x2="76.182" y2="43.856"/>
<line fill="none" stroke="#000000" stroke-width="0.72" stroke-linecap="round" stroke-linejoin="round" stroke-miterlimit="10" x1="79.66" y1="43.796" x2="79.721" y2="43.796"/>
<line fill="none" stroke="#000000" stroke-width="0.72" stroke-linecap="round" stroke-linejoin="round" stroke-miterlimit="10" x1="83.262" y1="43.796" x2="83.32" y2="43.796"/>
<line fill="none" stroke="#000000" stroke-width="0.72" stroke-linecap="round" stroke-linejoin="round" stroke-miterlimit="10" x1="86.859" y1="43.796" x2="86.92" y2="43.856"/>
<line fill="none" stroke="#000000" stroke-width="0.72" stroke-linecap="round" stroke-linejoin="round" stroke-miterlimit="10" x1="90.46" y1="43.796" x2="92.021" y2="43.796"/>
<line fill="none" stroke="#000000" stroke-width="0.72" stroke-linecap="round" stroke-linejoin="round" stroke-miterlimit="10" x1="98.021" y1="43.796" x2="104.561" y2="43.796"/>
<line fill="none" stroke="#000000" stroke-width="0.72" stroke-linecap="round" stroke-linejoin="round" stroke-miterlimit="10" x1="63.16" y1="43.196" x2="64.541" y2="43.196"/>
<line fill="none" stroke="#000000" stroke-width="0.72" stroke-linecap="round" stroke-linejoin="round" stroke-miterlimit="10" x1="91.24" y1="43.196" x2="92.92" y2="43.196"/>
<line fill="none" stroke="#000000" stroke-width="0.72" stroke-linecap="round" stroke-linejoin="round" stroke-miterlimit="10" x1="97.12" y1="43.196" x2="104.561" y2="43.196"/>
<line fill="none" stroke="#000000" stroke-width="0.72" stroke-linecap="round" stroke-linejoin="round" stroke-miterlimit="10" x1="63.16" y1="42.536" x2="64.12" y2="42.536"/>
<line fill="none" stroke="#000000" stroke-width="0.72" stroke-linecap="round" stroke-linejoin="round" stroke-miterlimit="10" x1="91.66" y1="42.536" x2="104.561" y2="42.536"/>
<line fill="none" stroke="#000000" stroke-width="0.72" stroke-linecap="round" stroke-linejoin="round" stroke-miterlimit="10" x1="63.16" y1="41.936" x2="63.88" y2="41.936"/>
<line fill="none" stroke="#000000" stroke-width="0.72" stroke-linecap="round" stroke-linejoin="round" stroke-miterlimit="10" x1="91.96" y1="41.936" x2="104.561" y2="41.936"/>
<line fill="none" stroke="#000000" stroke-width="0.72" stroke-linecap="round" stroke-linejoin="round" stroke-miterlimit="10" x1="63.16" y1="41.276" x2="63.28" y2="41.276"/>
<line fill="none" stroke="#000000" stroke-width="0.72" stroke-linecap="round" stroke-linejoin="round" stroke-miterlimit="10" x1="91.96" y1="41.276" x2="104.561" y2="41.276"/>
<line fill="none" stroke="#000000" stroke-width="0.72" stroke-linecap="round" stroke-linejoin="round" stroke-miterlimit="10" x1="91.96" y1="40.676" x2="104.561" y2="40.676"/>
<line fill="none" stroke="#000000" stroke-width="0.72" stroke-linecap="round" stroke-linejoin="round" stroke-miterlimit="10" x1="91.96" y1="40.016" x2="104.561" y2="40.016"/>
<line fill="none" stroke="#000000" stroke-width="0.72" stroke-linecap="round" stroke-linejoin="round" stroke-miterlimit="10" x1="91.96" y1="39.416" x2="98.859" y2="39.416"/>
<line fill="none" stroke="#000000" stroke-width="0.72" stroke-linecap="round" stroke-linejoin="round" stroke-miterlimit="10" x1="103.359" y1="39.416" x2="104.561" y2="39.416"/>
<line fill="none" stroke="#000000" stroke-width="0.72" stroke-linecap="round" stroke-linejoin="round" stroke-miterlimit="10" x1="91.96" y1="38.756" x2="97.9" y2="38.756"/>
<line fill="none" stroke="#000000" stroke-width="0.72" stroke-linecap="round" stroke-linejoin="round" stroke-miterlimit="10" x1="104.32" y1="38.756" x2="104.561" y2="38.756"/>
<line fill="none" stroke="#000000" stroke-width="0.72" stroke-linecap="round" stroke-linejoin="round" stroke-miterlimit="10" x1="91.96" y1="38.156" x2="97.359" y2="38.156"/>
<line fill="none" stroke="#000000" stroke-width="0.72" stroke-linecap="round" stroke-linejoin="round" stroke-miterlimit="10" x1="93.88" y1="37.556" x2="94.721" y2="37.556"/>
<line fill="none" stroke="#000000" stroke-width="1.2" stroke-linecap="round" stroke-linejoin="round" stroke-miterlimit="10" x1="99.7" y1="59.156" x2="96.58" y2="59.156"/>
<line fill="none" stroke="#000000" stroke-width="1.2" stroke-linecap="round" stroke-linejoin="round" stroke-miterlimit="10" x1="96.58" y1="59.156" x2="96.04" y2="58.616"/>
<line fill="none" stroke="#000000" stroke-width="1.2" stroke-linecap="round" stroke-linejoin="round" stroke-miterlimit="10" x1="96.04" y1="58.616" x2="96.04" y2="53.814"/>
<line fill="none" stroke="#000000" stroke-width="2.34" stroke-linecap="round" stroke-linejoin="round" stroke-miterlimit="10" x1="42.94" y1="37.676" x2="57.22" y2="37.676"/>
<line fill="none" stroke="#000000" stroke-width="2.34" stroke-linecap="round" stroke-linejoin="round" stroke-miterlimit="10" x1="57.22" y1="37.676" x2="63.16" y2="43.616"/>
<line fill="none" stroke="#000000" stroke-width="1.2" stroke-linecap="round" stroke-linejoin="round" stroke-miterlimit="10" x1="91.841" y1="33.716" x2="90.279" y2="33.716"/>
<line fill="none" stroke="#000000" stroke-width="1.2" stroke-linecap="round" stroke-linejoin="round" stroke-miterlimit="10" x1="90.279" y1="33.716" x2="88.66" y2="35.336"/>
<line fill="none" stroke="#000000" stroke-width="1.2" stroke-linecap="round" stroke-linejoin="round" stroke-miterlimit="10" x1="88.66" y1="39.116" x2="88.66" y2="35.336"/>
<line fill="none" stroke="#000000" stroke-width="1.2" stroke-linecap="round" stroke-linejoin="round" stroke-miterlimit="10" x1="70.721" y1="51.836" x2="70.721" y2="55.256"/>
<line fill="none" stroke="#000000" stroke-width="1.2" stroke-linecap="round" stroke-linejoin="round" stroke-miterlimit="10" x1="44.32" y1="50.396" x2="69.279" y2="50.396"/>
<line fill="none" stroke="#000000" stroke-width="1.2" stroke-linecap="round" stroke-linejoin="round" stroke-miterlimit="10" x1="69.279" y1="50.396" x2="70.721" y2="51.836"/>
<line fill="none" stroke="#000000" stroke-width="1.2" stroke-linecap="round" stroke-linejoin="round" stroke-miterlimit="10" x1="74.32" y1="50.336" x2="71.801" y2="47.876"/>
<line fill="none" stroke="#000000" stroke-width="1.2" stroke-linecap="round" stroke-linejoin="round" stroke-miterlimit="10" x1="74.32" y1="50.336" x2="74.32" y2="55.256"/>
<line fill="none" stroke="#000000" stroke-width="1.2" stroke-linecap="round" stroke-linejoin="round" stroke-miterlimit="10" x1="71.801" y1="47.876" x2="60.64" y2="47.876"/>
<line fill="none" stroke="#000000" stroke-width="1.2" stroke-linecap="round" stroke-linejoin="round" stroke-miterlimit="10" x1="60.64" y1="47.876" x2="57.521" y2="44.756"/>
<line fill="none" stroke="#000000" stroke-width="1.2" stroke-linecap="round" stroke-linejoin="round" stroke-miterlimit="10" x1="57.521" y1="44.756" x2="44.32" y2="44.756"/>
<line fill="none" stroke="#000000" stroke-width="1.2" stroke-linecap="round" stroke-linejoin="round" stroke-miterlimit="10" x1="67.12" y1="55.256" x2="64.48" y2="55.195"/>
<line fill="none" stroke="#000000" stroke-width="1.2" stroke-linecap="round" stroke-linejoin="round" stroke-miterlimit="10" x1="63.88" y1="55.796" x2="64.48" y2="55.195"/>
<line fill="none" stroke="#000000" stroke-width="1.2" stroke-linecap="round" stroke-linejoin="round" stroke-miterlimit="10" x1="70.721" y1="39.116" x2="70.721" y2="34.136"/>
<line fill="none" stroke="#000000" stroke-width="1.2" stroke-linecap="round" stroke-linejoin="round" stroke-miterlimit="10" x1="70.721" y1="34.136" x2="72.102" y2="32.756"/>
<line fill="none" stroke="#000000" stroke-width="1.2" stroke-linecap="round" stroke-linejoin="round" stroke-miterlimit="10" x1="72.102" y1="32.756" x2="72.46" y2="32.756"/>
<line fill="none" stroke="#000000" stroke-width="1.2" stroke-linecap="round" stroke-linejoin="round" stroke-miterlimit="10" x1="92.32" y1="61.855" x2="87.221" y2="61.855"/>
<line fill="none" stroke="#000000" stroke-width="1.2" stroke-linecap="round" stroke-linejoin="round" stroke-miterlimit="10" x1="81.46" y1="58.676" x2="81.46" y2="55.256"/>
<line fill="none" stroke="#000000" stroke-width="1.2" stroke-linecap="round" stroke-linejoin="round" stroke-miterlimit="10" x1="82.96" y1="61.855" x2="82.96" y2="60.176"/>
<line fill="none" stroke="#000000" stroke-width="1.2" stroke-linecap="round" stroke-linejoin="round" stroke-miterlimit="10" x1="82.96" y1="60.176" x2="81.46" y2="58.676"/>
<line fill="none" stroke="#000000" stroke-width="1.2" stroke-linecap="round" stroke-linejoin="round" stroke-miterlimit="10" x1="82.96" y1="61.855" x2="87.221" y2="61.855"/>
<line fill="none" stroke="#000000" stroke-width="1.2" stroke-linecap="round" stroke-linejoin="round" stroke-miterlimit="10" x1="95.021" y1="47.156" x2="99.7" y2="51.836"/>
<line fill="none" stroke="#000000" stroke-width="1.2" stroke-linecap="round" stroke-linejoin="round" stroke-miterlimit="10" x1="99.7" y1="51.836" x2="99.7" y2="56.516"/>
<line fill="none" stroke="#000000" stroke-width="1.2" stroke-linecap="round" stroke-linejoin="round" stroke-miterlimit="10" x1="99.7" y1="61.855" x2="103.359" y2="61.855"/>
<line fill="none" stroke="#000000" stroke-width="1.2" stroke-linecap="round" stroke-linejoin="round" stroke-miterlimit="10" x1="103.359" y1="61.855" x2="104.08" y2="61.136"/>
<line fill="none" stroke="#000000" stroke-width="1.2" stroke-linecap="round" stroke-linejoin="round" stroke-miterlimit="10" x1="104.08" y1="61.136" x2="104.08" y2="57.176"/>
<line fill="none" stroke="#000000" stroke-width="1.2" stroke-linecap="round" stroke-linejoin="round" stroke-miterlimit="10" x1="104.08" y1="57.176" x2="103.359" y2="56.516"/>
<line fill="none" stroke="#000000" stroke-width="1.2" stroke-linecap="round" stroke-linejoin="round" stroke-miterlimit="10" x1="103.359" y1="56.516" x2="99.7" y2="56.516"/>
<line fill="none" stroke="#000000" stroke-width="2.34" stroke-linecap="round" stroke-linejoin="round" stroke-miterlimit="10" x1="58.061" y1="57.477" x2="42.94" y2="57.477"/>
<line fill="none" stroke="#000000" stroke-width="2.34" stroke-linecap="round" stroke-linejoin="round" stroke-miterlimit="10" x1="64.601" y1="61.855" x2="62.44" y2="61.855"/>
<line fill="none" stroke="#000000" stroke-width="2.34" stroke-linecap="round" stroke-linejoin="round" stroke-miterlimit="10" x1="62.44" y1="61.855" x2="58.061" y2="57.477"/>
<line fill="none" stroke="#000000" stroke-width="1.2" stroke-linecap="round" stroke-linejoin="round" stroke-miterlimit="10" x1="101.08" y1="35.576" x2="100.841" y2="35.576"/>
<line fill="none" stroke="#000000" stroke-width="1.2" stroke-linecap="round" stroke-linejoin="round" stroke-miterlimit="10" x1="100.841" y1="35.576" x2="99.279" y2="34.016"/>
<line fill="none" stroke="#000000" stroke-width="1.2" stroke-linecap="round" stroke-linejoin="round" stroke-miterlimit="10" x1="99.279" y1="34.016" x2="97.061" y2="34.016"/>
<line fill="none" stroke="#000000" stroke-width="1.2" stroke-linecap="round" stroke-linejoin="round" stroke-miterlimit="10" x1="96.82" y1="33.716" x2="97.061" y2="34.016"/>
<line fill="none" stroke="#000000" stroke-width="1.2" stroke-linecap="round" stroke-linejoin="round" stroke-miterlimit="10" x1="67.12" y1="39.116" x2="66.4" y2="39.116"/>
<line fill="none" stroke="#000000" stroke-width="1.2" stroke-linecap="round" stroke-linejoin="round" stroke-miterlimit="10" x1="66.4" y1="39.116" x2="64.18" y2="36.836"/>
<circle cx="94.9" cy="41.096" r="1.86"/>
<circle fill="none" cx="94.9" cy="41.096" r="1.86"/>
<circle fill="none" stroke="#000000" stroke-width="0.06" stroke-linecap="square" stroke-linejoin="bevel" stroke-miterlimit="10" cx="94.9" cy="41.096" r="1.14"/>
<circle cx="72.52" cy="61.736" r="1.86"/>
<circle fill="none" cx="72.52" cy="61.736" r="1.86"/>
<circle fill="none" stroke="#000000" stroke-width="0.06" stroke-linecap="square" stroke-linejoin="bevel" stroke-miterlimit="10" cx="72.52" cy="61.736" r="1.14"/>
<circle cx="63.88" cy="55.796" r="1.86"/>
<circle fill="none" cx="63.88" cy="55.796" r="1.86"/>
<circle fill="none" stroke="#000000" stroke-width="0.06" stroke-linecap="square" stroke-linejoin="bevel" stroke-miterlimit="10" cx="63.88" cy="55.796" r="1.14"/>
<circle cx="72.46" cy="32.756" r="1.86"/>
<circle fill="none" cx="72.46" cy="32.756" r="1.86"/>
<circle fill="none" stroke="#000000" stroke-width="0.06" stroke-linecap="square" stroke-linejoin="bevel" stroke-miterlimit="10" cx="72.46" cy="32.756" r="1.14"/>
<circle cx="87.221" cy="61.855" r="1.86"/>
<circle fill="none" cx="87.221" cy="61.855" r="1.86"/>
<circle fill="none" stroke="#000000" stroke-width="0.06" stroke-linecap="square" stroke-linejoin="bevel" stroke-miterlimit="10" cx="87.221" cy="61.855" r="1.14"/>
<circle cx="64.6" cy="61.855" r="1.86"/>
<circle fill="none" cx="64.6" cy="61.855" r="1.86"/>
<circle fill="none" stroke="#000000" stroke-width="0.06" stroke-linecap="square" stroke-linejoin="bevel" stroke-miterlimit="10" cx="64.6" cy="61.855" r="1.14"/>
<circle cx="95.02" cy="47.156" r="1.86"/>
<circle fill="none" cx="95.02" cy="47.156" r="1.86"/>
<circle fill="none" stroke="#000000" stroke-width="0.06" stroke-linecap="square" stroke-linejoin="bevel" stroke-miterlimit="10" cx="95.02" cy="47.156" r="1.14"/>
<circle cx="64.18" cy="36.836" r="1.86"/>
<circle fill="none" cx="64.18" cy="36.836" r="1.86"/>
<circle fill="none" stroke="#000000" stroke-width="0.06" stroke-linecap="square" stroke-linejoin="bevel" stroke-miterlimit="10" cx="64.18" cy="36.836" r="1.14"/>
<polyline fill="none" stroke="#000000" stroke-width="0.1" stroke-linecap="round" stroke-linejoin="round" stroke-miterlimit="10" points="
	27.193,27.917 108.167,27.917 108.167,66.667 27.193,66.667 27.127,66.667 27.127,27.917 "/>
</svg>
