<?xml version="1.0" encoding="utf-8"?>
<!-- Generator: Adobe Illustrator 16.0.0, SVG Export Plug-In . SVG Version: 6.00 Build 0)  -->
<!DOCTYPE svg PUBLIC "-//W3C//DTD SVG 1.1//EN" "http://www.w3.org/Graphics/SVG/1.1/DTD/svg11.dtd">
<svg version="1.1" id="Layer_1" xmlns="http://www.w3.org/2000/svg" xmlns:xlink="http://www.w3.org/1999/xlink" x="0px" y="0px"
	 width="155px" height="107px" viewBox="0 0 155 107" enable-background="new 0 0 155 107" xml:space="preserve">
<path d="M77.66,39.6c0-0.597,0.484-1.08,1.08-1.08h2.16c0.597,0,1.08,0.483,1.08,1.08v2.16c0,0.597-0.483,1.08-1.08,1.08h-2.16
	c-0.596,0-1.08-0.483-1.08-1.08V39.6z"/>
<path d="M70.46,39.6c0-0.597,0.484-1.08,1.08-1.08h2.16c0.596,0,1.08,0.483,1.08,1.08v2.16c0,0.597-0.484,1.08-1.08,1.08h-2.16
	c-0.596,0-1.08-0.483-1.08-1.08V39.6z"/>
<path d="M63.26,39.6c0-0.597,0.483-1.08,1.08-1.08h2.16c0.597,0,1.08,0.483,1.08,1.08v2.16c0,0.597-0.483,1.08-1.08,1.08h-2.16
	c-0.596,0-1.08-0.483-1.08-1.08V39.6z"/>
<path d="M48.86,39.6c0-0.597,0.484-1.08,1.08-1.08h2.16c0.596,0,1.08,0.483,1.08,1.08v2.16c0,0.597-0.484,1.08-1.08,1.08h-2.16
	c-0.596,0-1.08-0.483-1.08-1.08V39.6z"/>
<line fill="none" stroke="#000000" stroke-width="0.72" stroke-linecap="round" stroke-linejoin="round" stroke-miterlimit="10" x1="59.06" y1="57" x2="72.5" y2="57"/>
<line fill="none" stroke="#000000" stroke-width="0.72" stroke-linecap="round" stroke-linejoin="round" stroke-miterlimit="10" x1="72.5" y1="57" x2="62.72" y2="47.22"/>
<line fill="none" stroke="#000000" stroke-width="0.72" stroke-linecap="round" stroke-linejoin="round" stroke-miterlimit="10" x1="62.72" y1="47.22" x2="62.24" y2="46.08"/>
<line fill="none" stroke="#000000" stroke-width="0.72" stroke-linecap="round" stroke-linejoin="round" stroke-miterlimit="10" x1="62.24" y1="46.08" x2="62.24" y2="44.88"/>
<line fill="none" stroke="#000000" stroke-width="0.72" stroke-linecap="round" stroke-linejoin="round" stroke-miterlimit="10" x1="62.24" y1="44.88" x2="61.22" y2="43.86"/>
<line fill="none" stroke="#000000" stroke-width="0.72" stroke-linecap="round" stroke-linejoin="round" stroke-miterlimit="10" x1="61.22" y1="43.86" x2="60.62" y2="42.54"/>
<line fill="none" stroke="#000000" stroke-width="0.72" stroke-linecap="round" stroke-linejoin="round" stroke-miterlimit="10" x1="60.62" y1="42.54" x2="60.62" y2="38.88"/>
<line fill="none" stroke="#000000" stroke-width="0.72" stroke-linecap="round" stroke-linejoin="round" stroke-miterlimit="10" x1="60.62" y1="38.88" x2="61.1" y2="37.8"/>
<line fill="none" stroke="#000000" stroke-width="0.72" stroke-linecap="round" stroke-linejoin="round" stroke-miterlimit="10" x1="61.1" y1="37.8" x2="55.4" y2="37.8"/>
<line fill="none" stroke="#000000" stroke-width="0.72" stroke-linecap="round" stroke-linejoin="round" stroke-miterlimit="10" x1="55.4" y1="37.8" x2="55.82" y2="38.88"/>
<line fill="none" stroke="#000000" stroke-width="0.72" stroke-linecap="round" stroke-linejoin="round" stroke-miterlimit="10" x1="55.82" y1="38.88" x2="55.82" y2="42.54"/>
<line fill="none" stroke="#000000" stroke-width="0.72" stroke-linecap="round" stroke-linejoin="round" stroke-miterlimit="10" x1="55.82" y1="42.54" x2="55.28" y2="43.86"/>
<line fill="none" stroke="#000000" stroke-width="0.72" stroke-linecap="round" stroke-linejoin="round" stroke-miterlimit="10" x1="55.28" y1="43.86" x2="54.2" y2="44.94"/>
<line fill="none" stroke="#000000" stroke-width="0.72" stroke-linecap="round" stroke-linejoin="round" stroke-miterlimit="10" x1="54.2" y1="44.94" x2="52.82" y2="45.48"/>
<line fill="none" stroke="#000000" stroke-width="0.72" stroke-linecap="round" stroke-linejoin="round" stroke-miterlimit="10" x1="52.82" y1="45.48" x2="49.22" y2="45.48"/>
<line fill="none" stroke="#000000" stroke-width="0.72" stroke-linecap="round" stroke-linejoin="round" stroke-miterlimit="10" x1="49.22" y1="45.48" x2="48.14" y2="45"/>
<line fill="none" stroke="#000000" stroke-width="0.72" stroke-linecap="round" stroke-linejoin="round" stroke-miterlimit="10" x1="48.14" y1="45" x2="45.74" y2="47.4"/>
<line fill="none" stroke="#000000" stroke-width="0.72" stroke-linecap="round" stroke-linejoin="round" stroke-miterlimit="10" x1="45.74" y1="47.4" x2="45.74" y2="60"/>
<line fill="none" stroke="#000000" stroke-width="0.72" stroke-linecap="round" stroke-linejoin="round" stroke-miterlimit="10" x1="45.74" y1="60" x2="50.84" y2="65.1"/>
<line fill="none" stroke="#000000" stroke-width="0.72" stroke-linecap="round" stroke-linejoin="round" stroke-miterlimit="10" x1="50.84" y1="65.1" x2="55.16" y2="65.1"/>
<line fill="none" stroke="#000000" stroke-width="0.72" stroke-linecap="round" stroke-linejoin="round" stroke-miterlimit="10" x1="55.16" y1="65.1" x2="56" y2="64.2"/>
<line fill="none" stroke="#000000" stroke-width="0.72" stroke-linecap="round" stroke-linejoin="round" stroke-miterlimit="10" x1="56" y1="64.2" x2="57.68" y2="63.54"/>
<line fill="none" stroke="#000000" stroke-width="0.72" stroke-linecap="round" stroke-linejoin="round" stroke-miterlimit="10" x1="57.68" y1="63.54" x2="59.48" y2="63.54"/>
<line fill="none" stroke="#000000" stroke-width="0.72" stroke-linecap="round" stroke-linejoin="round" stroke-miterlimit="10" x1="59.48" y1="63.54" x2="61.1" y2="64.2"/>
<line fill="none" stroke="#000000" stroke-width="0.72" stroke-linecap="round" stroke-linejoin="round" stroke-miterlimit="10" x1="61.1" y1="64.2" x2="62.36" y2="65.46"/>
<line fill="none" stroke="#000000" stroke-width="0.72" stroke-linecap="round" stroke-linejoin="round" stroke-miterlimit="10" x1="62.36" y1="65.46" x2="63.02" y2="67.08"/>
<line fill="none" stroke="#000000" stroke-width="0.72" stroke-linecap="round" stroke-linejoin="round" stroke-miterlimit="10" x1="63.02" y1="67.08" x2="63.02" y2="68.88"/>
<line fill="none" stroke="#000000" stroke-width="0.72" stroke-linecap="round" stroke-linejoin="round" stroke-miterlimit="10" x1="63.02" y1="68.88" x2="62.72" y2="69.6"/>
<line fill="none" stroke="#000000" stroke-width="0.72" stroke-linecap="round" stroke-linejoin="round" stroke-miterlimit="10" x1="62.72" y1="69.6" x2="77.06" y2="69.6"/>
<line fill="none" stroke="#000000" stroke-width="0.72" stroke-linecap="round" stroke-linejoin="round" stroke-miterlimit="10" x1="77.06" y1="69.6" x2="76.76" y2="68.88"/>
<line fill="none" stroke="#000000" stroke-width="0.72" stroke-linecap="round" stroke-linejoin="round" stroke-miterlimit="10" x1="76.76" y1="68.88" x2="76.76" y2="68.04"/>
<line fill="none" stroke="#000000" stroke-width="0.72" stroke-linecap="round" stroke-linejoin="round" stroke-miterlimit="10" x1="76.76" y1="68.04" x2="72.08" y2="63.42"/>
<line fill="none" stroke="#000000" stroke-width="0.72" stroke-linecap="round" stroke-linejoin="round" stroke-miterlimit="10" x1="72.08" y1="63.42" x2="57.08" y2="63.42"/>
<line fill="none" stroke="#000000" stroke-width="0.72" stroke-linecap="round" stroke-linejoin="round" stroke-miterlimit="10" x1="57.08" y1="63.42" x2="55.88" y2="62.939"/>
<line fill="none" stroke="#000000" stroke-width="0.72" stroke-linecap="round" stroke-linejoin="round" stroke-miterlimit="10" x1="55.88" y1="62.939" x2="54.98" y2="62.04"/>
<line fill="none" stroke="#000000" stroke-width="0.72" stroke-linecap="round" stroke-linejoin="round" stroke-miterlimit="10" x1="54.98" y1="62.04" x2="50.72" y2="57.78"/>
<line fill="none" stroke="#000000" stroke-width="0.72" stroke-linecap="round" stroke-linejoin="round" stroke-miterlimit="10" x1="50.72" y1="57.78" x2="49.88" y2="57.78"/>
<line fill="none" stroke="#000000" stroke-width="0.72" stroke-linecap="round" stroke-linejoin="round" stroke-miterlimit="10" x1="49.88" y1="57.78" x2="48.26" y2="57.06"/>
<line fill="none" stroke="#000000" stroke-width="0.72" stroke-linecap="round" stroke-linejoin="round" stroke-miterlimit="10" x1="48.26" y1="57.06" x2="47" y2="55.8"/>
<line fill="none" stroke="#000000" stroke-width="0.72" stroke-linecap="round" stroke-linejoin="round" stroke-miterlimit="10" x1="47" y1="55.8" x2="46.28" y2="54.18"/>
<line fill="none" stroke="#000000" stroke-width="0.72" stroke-linecap="round" stroke-linejoin="round" stroke-miterlimit="10" x1="46.28" y1="54.18" x2="46.28" y2="52.38"/>
<line fill="none" stroke="#000000" stroke-width="0.72" stroke-linecap="round" stroke-linejoin="round" stroke-miterlimit="10" x1="46.28" y1="52.38" x2="47" y2="50.76"/>
<line fill="none" stroke="#000000" stroke-width="0.72" stroke-linecap="round" stroke-linejoin="round" stroke-miterlimit="10" x1="47" y1="50.76" x2="48.26" y2="49.5"/>
<line fill="none" stroke="#000000" stroke-width="0.72" stroke-linecap="round" stroke-linejoin="round" stroke-miterlimit="10" x1="48.26" y1="49.5" x2="49.88" y2="48.84"/>
<line fill="none" stroke="#000000" stroke-width="0.72" stroke-linecap="round" stroke-linejoin="round" stroke-miterlimit="10" x1="49.88" y1="48.84" x2="51.68" y2="48.84"/>
<line fill="none" stroke="#000000" stroke-width="0.72" stroke-linecap="round" stroke-linejoin="round" stroke-miterlimit="10" x1="51.68" y1="48.84" x2="53.3" y2="49.5"/>
<line fill="none" stroke="#000000" stroke-width="0.72" stroke-linecap="round" stroke-linejoin="round" stroke-miterlimit="10" x1="53.3" y1="49.5" x2="54.56" y2="50.76"/>
<line fill="none" stroke="#000000" stroke-width="0.72" stroke-linecap="round" stroke-linejoin="round" stroke-miterlimit="10" x1="54.56" y1="50.76" x2="55.28" y2="52.38"/>
<line fill="none" stroke="#000000" stroke-width="0.72" stroke-linecap="round" stroke-linejoin="round" stroke-miterlimit="10" x1="55.28" y1="52.38" x2="55.28" y2="53.22"/>
<line fill="none" stroke="#000000" stroke-width="0.72" stroke-linecap="round" stroke-linejoin="round" stroke-miterlimit="10" x1="55.28" y1="53.22" x2="59.06" y2="57"/>
<line fill="none" stroke="#000000" stroke-width="0.72" stroke-linecap="round" stroke-linejoin="round" stroke-miterlimit="10" x1="76.94" y1="69.42" x2="62.84" y2="69.42"/>
<line fill="none" stroke="#000000" stroke-width="0.72" stroke-linecap="round" stroke-linejoin="round" stroke-miterlimit="10" x1="76.76" y1="68.82" x2="63.02" y2="68.82"/>
<line fill="none" stroke="#000000" stroke-width="0.72" stroke-linecap="round" stroke-linejoin="round" stroke-miterlimit="10" x1="76.76" y1="68.16" x2="63.02" y2="68.16"/>
<line fill="none" stroke="#000000" stroke-width="0.72" stroke-linecap="round" stroke-linejoin="round" stroke-miterlimit="10" x1="76.22" y1="67.56" x2="63.02" y2="67.56"/>
<line fill="none" stroke="#000000" stroke-width="0.72" stroke-linecap="round" stroke-linejoin="round" stroke-miterlimit="10" x1="75.62" y1="66.899" x2="62.96" y2="66.899"/>
<line fill="none" stroke="#000000" stroke-width="0.72" stroke-linecap="round" stroke-linejoin="round" stroke-miterlimit="10" x1="74.96" y1="66.3" x2="62.72" y2="66.3"/>
<line fill="none" stroke="#000000" stroke-width="0.72" stroke-linecap="round" stroke-linejoin="round" stroke-miterlimit="10" x1="74.36" y1="65.64" x2="62.42" y2="65.64"/>
<line fill="none" stroke="#000000" stroke-width="0.72" stroke-linecap="round" stroke-linejoin="round" stroke-miterlimit="10" x1="73.7" y1="65.04" x2="61.94" y2="65.04"/>
<line fill="none" stroke="#000000" stroke-width="0.72" stroke-linecap="round" stroke-linejoin="round" stroke-miterlimit="10" x1="55.22" y1="65.04" x2="50.78" y2="65.04"/>
<line fill="none" stroke="#000000" stroke-width="0.72" stroke-linecap="round" stroke-linejoin="round" stroke-miterlimit="10" x1="73.1" y1="64.38" x2="61.28" y2="64.38"/>
<line fill="none" stroke="#000000" stroke-width="0.72" stroke-linecap="round" stroke-linejoin="round" stroke-miterlimit="10" x1="55.82" y1="64.38" x2="50.12" y2="64.38"/>
<line fill="none" stroke="#000000" stroke-width="0.72" stroke-linecap="round" stroke-linejoin="round" stroke-miterlimit="10" x1="72.44" y1="63.78" x2="60.02" y2="63.78"/>
<line fill="none" stroke="#000000" stroke-width="0.72" stroke-linecap="round" stroke-linejoin="round" stroke-miterlimit="10" x1="57.08" y1="63.78" x2="49.52" y2="63.78"/>
<line fill="none" stroke="#000000" stroke-width="0.72" stroke-linecap="round" stroke-linejoin="round" stroke-miterlimit="10" x1="56.42" y1="63.12" x2="48.86" y2="63.12"/>
<line fill="none" stroke="#000000" stroke-width="0.72" stroke-linecap="round" stroke-linejoin="round" stroke-miterlimit="10" x1="55.46" y1="62.52" x2="48.26" y2="62.52"/>
<line fill="none" stroke="#000000" stroke-width="0.72" stroke-linecap="round" stroke-linejoin="round" stroke-miterlimit="10" x1="54.86" y1="61.86" x2="47.6" y2="61.86"/>
<line fill="none" stroke="#000000" stroke-width="0.72" stroke-linecap="round" stroke-linejoin="round" stroke-miterlimit="10" x1="54.2" y1="61.26" x2="47" y2="61.26"/>
<line fill="none" stroke="#000000" stroke-width="0.72" stroke-linecap="round" stroke-linejoin="round" stroke-miterlimit="10" x1="53.6" y1="60.6" x2="46.4" y2="60.6"/>
<line fill="none" stroke="#000000" stroke-width="0.72" stroke-linecap="round" stroke-linejoin="round" stroke-miterlimit="10" x1="53" y1="60" x2="45.74" y2="60"/>
<line fill="none" stroke="#000000" stroke-width="0.72" stroke-linecap="round" stroke-linejoin="round" stroke-miterlimit="10" x1="52.34" y1="59.34" x2="45.74" y2="59.34"/>
<line fill="none" stroke="#000000" stroke-width="0.72" stroke-linecap="round" stroke-linejoin="round" stroke-miterlimit="10" x1="51.74" y1="58.74" x2="45.74" y2="58.74"/>
<line fill="none" stroke="#000000" stroke-width="0.72" stroke-linecap="round" stroke-linejoin="round" stroke-miterlimit="10" x1="51.08" y1="58.08" x2="45.74" y2="58.08"/>
<line fill="none" stroke="#000000" stroke-width="0.72" stroke-linecap="round" stroke-linejoin="round" stroke-miterlimit="10" x1="49.22" y1="57.479" x2="45.74" y2="57.479"/>
<line fill="none" stroke="#000000" stroke-width="0.72" stroke-linecap="round" stroke-linejoin="round" stroke-miterlimit="10" x1="72.32" y1="56.88" x2="58.88" y2="56.88"/>
<line fill="none" stroke="#000000" stroke-width="0.72" stroke-linecap="round" stroke-linejoin="round" stroke-miterlimit="10" x1="48.02" y1="56.88" x2="45.74" y2="56.88"/>
<line fill="none" stroke="#000000" stroke-width="0.72" stroke-linecap="round" stroke-linejoin="round" stroke-miterlimit="10" x1="71.72" y1="56.22" x2="58.22" y2="56.22"/>
<line fill="none" stroke="#000000" stroke-width="0.72" stroke-linecap="round" stroke-linejoin="round" stroke-miterlimit="10" x1="47.42" y1="56.22" x2="45.74" y2="56.22"/>
<line fill="none" stroke="#000000" stroke-width="0.72" stroke-linecap="round" stroke-linejoin="round" stroke-miterlimit="10" x1="71.06" y1="55.62" x2="57.62" y2="55.62"/>
<line fill="none" stroke="#000000" stroke-width="0.72" stroke-linecap="round" stroke-linejoin="round" stroke-miterlimit="10" x1="46.88" y1="55.62" x2="45.74" y2="55.62"/>
<line fill="none" stroke="#000000" stroke-width="0.72" stroke-linecap="round" stroke-linejoin="round" stroke-miterlimit="10" x1="70.46" y1="54.96" x2="56.96" y2="54.96"/>
<line fill="none" stroke="#000000" stroke-width="0.72" stroke-linecap="round" stroke-linejoin="round" stroke-miterlimit="10" x1="46.64" y1="54.96" x2="45.74" y2="54.96"/>
<line fill="none" stroke="#000000" stroke-width="0.72" stroke-linecap="round" stroke-linejoin="round" stroke-miterlimit="10" x1="69.8" y1="54.36" x2="56.36" y2="54.36"/>
<line fill="none" stroke="#000000" stroke-width="0.72" stroke-linecap="round" stroke-linejoin="round" stroke-miterlimit="10" x1="46.4" y1="54.36" x2="45.74" y2="54.36"/>
<line fill="none" stroke="#000000" stroke-width="0.72" stroke-linecap="round" stroke-linejoin="round" stroke-miterlimit="10" x1="69.2" y1="53.7" x2="55.7" y2="53.7"/>
<line fill="none" stroke="#000000" stroke-width="0.72" stroke-linecap="round" stroke-linejoin="round" stroke-miterlimit="10" x1="46.28" y1="53.7" x2="45.74" y2="53.7"/>
<line fill="none" stroke="#000000" stroke-width="0.72" stroke-linecap="round" stroke-linejoin="round" stroke-miterlimit="10" x1="68.54" y1="53.1" x2="55.28" y2="53.1"/>
<line fill="none" stroke="#000000" stroke-width="0.72" stroke-linecap="round" stroke-linejoin="round" stroke-miterlimit="10" x1="46.28" y1="53.1" x2="45.74" y2="53.1"/>
<line fill="none" stroke="#000000" stroke-width="0.72" stroke-linecap="round" stroke-linejoin="round" stroke-miterlimit="10" x1="67.94" y1="52.44" x2="55.28" y2="52.44"/>
<line fill="none" stroke="#000000" stroke-width="0.72" stroke-linecap="round" stroke-linejoin="round" stroke-miterlimit="10" x1="46.28" y1="52.44" x2="45.74" y2="52.44"/>
<line fill="none" stroke="#000000" stroke-width="0.72" stroke-linecap="round" stroke-linejoin="round" stroke-miterlimit="10" x1="67.28" y1="51.84" x2="55.04" y2="51.84"/>
<line fill="none" stroke="#000000" stroke-width="0.72" stroke-linecap="round" stroke-linejoin="round" stroke-miterlimit="10" x1="46.52" y1="51.84" x2="45.74" y2="51.84"/>
<line fill="none" stroke="#000000" stroke-width="0.72" stroke-linecap="round" stroke-linejoin="round" stroke-miterlimit="10" x1="66.68" y1="51.18" x2="54.74" y2="51.18"/>
<line fill="none" stroke="#000000" stroke-width="0.72" stroke-linecap="round" stroke-linejoin="round" stroke-miterlimit="10" x1="46.82" y1="51.18" x2="45.74" y2="51.18"/>
<line fill="none" stroke="#000000" stroke-width="0.72" stroke-linecap="round" stroke-linejoin="round" stroke-miterlimit="10" x1="66.02" y1="50.58" x2="54.38" y2="50.58"/>
<line fill="none" stroke="#000000" stroke-width="0.72" stroke-linecap="round" stroke-linejoin="round" stroke-miterlimit="10" x1="47.18" y1="50.58" x2="45.74" y2="50.58"/>
<line fill="none" stroke="#000000" stroke-width="0.72" stroke-linecap="round" stroke-linejoin="round" stroke-miterlimit="10" x1="65.42" y1="49.92" x2="53.78" y2="49.92"/>
<line fill="none" stroke="#000000" stroke-width="0.72" stroke-linecap="round" stroke-linejoin="round" stroke-miterlimit="10" x1="47.78" y1="49.92" x2="45.74" y2="49.92"/>
<line fill="none" stroke="#000000" stroke-width="0.72" stroke-linecap="round" stroke-linejoin="round" stroke-miterlimit="10" x1="64.76" y1="49.32" x2="52.88" y2="49.32"/>
<line fill="none" stroke="#000000" stroke-width="0.72" stroke-linecap="round" stroke-linejoin="round" stroke-miterlimit="10" x1="48.68" y1="49.32" x2="45.74" y2="49.32"/>
<line fill="none" stroke="#000000" stroke-width="0.72" stroke-linecap="round" stroke-linejoin="round" stroke-miterlimit="10" x1="64.16" y1="48.66" x2="45.74" y2="48.66"/>
<line fill="none" stroke="#000000" stroke-width="0.72" stroke-linecap="round" stroke-linejoin="round" stroke-miterlimit="10" x1="63.5" y1="48.06" x2="45.74" y2="48.06"/>
<line fill="none" stroke="#000000" stroke-width="0.72" stroke-linecap="round" stroke-linejoin="round" stroke-miterlimit="10" x1="62.9" y1="47.4" x2="45.74" y2="47.4"/>
<line fill="none" stroke="#000000" stroke-width="0.72" stroke-linecap="round" stroke-linejoin="round" stroke-miterlimit="10" x1="62.54" y1="46.8" x2="46.34" y2="46.8"/>
<line fill="none" stroke="#000000" stroke-width="0.72" stroke-linecap="round" stroke-linejoin="round" stroke-miterlimit="10" x1="62.24" y1="46.14" x2="47" y2="46.14"/>
<line fill="none" stroke="#000000" stroke-width="0.72" stroke-linecap="round" stroke-linejoin="round" stroke-miterlimit="10" x1="62.24" y1="45.54" x2="47.6" y2="45.54"/>
<line fill="none" stroke="#000000" stroke-width="0.72" stroke-linecap="round" stroke-linejoin="round" stroke-miterlimit="10" x1="62.24" y1="44.88" x2="54.2" y2="44.88"/>
<line fill="none" stroke="#000000" stroke-width="0.72" stroke-linecap="round" stroke-linejoin="round" stroke-miterlimit="10" x1="61.58" y1="44.28" x2="54.86" y2="44.28"/>
<line fill="none" stroke="#000000" stroke-width="0.72" stroke-linecap="round" stroke-linejoin="round" stroke-miterlimit="10" x1="61.1" y1="43.68" x2="55.34" y2="43.68"/>
<line fill="none" stroke="#000000" stroke-width="0.72" stroke-linecap="round" stroke-linejoin="round" stroke-miterlimit="10" x1="60.86" y1="43.02" x2="55.58" y2="43.02"/>
<line fill="none" stroke="#000000" stroke-width="0.72" stroke-linecap="round" stroke-linejoin="round" stroke-miterlimit="10" x1="60.62" y1="42.42" x2="55.82" y2="42.42"/>
<line fill="none" stroke="#000000" stroke-width="0.72" stroke-linecap="round" stroke-linejoin="round" stroke-miterlimit="10" x1="60.62" y1="41.76" x2="55.82" y2="41.76"/>
<line fill="none" stroke="#000000" stroke-width="0.72" stroke-linecap="round" stroke-linejoin="round" stroke-miterlimit="10" x1="60.62" y1="41.16" x2="55.82" y2="41.16"/>
<line fill="none" stroke="#000000" stroke-width="0.72" stroke-linecap="round" stroke-linejoin="round" stroke-miterlimit="10" x1="60.62" y1="40.5" x2="55.82" y2="40.5"/>
<line fill="none" stroke="#000000" stroke-width="0.72" stroke-linecap="round" stroke-linejoin="round" stroke-miterlimit="10" x1="60.62" y1="39.9" x2="55.82" y2="39.9"/>
<line fill="none" stroke="#000000" stroke-width="0.72" stroke-linecap="round" stroke-linejoin="round" stroke-miterlimit="10" x1="60.62" y1="39.24" x2="55.82" y2="39.24"/>
<line fill="none" stroke="#000000" stroke-width="0.72" stroke-linecap="round" stroke-linejoin="round" stroke-miterlimit="10" x1="60.74" y1="38.64" x2="55.7" y2="38.64"/>
<line fill="none" stroke="#000000" stroke-width="0.72" stroke-linecap="round" stroke-linejoin="round" stroke-miterlimit="10" x1="60.98" y1="37.98" x2="55.46" y2="37.98"/>
<line fill="none" stroke="#000000" stroke-width="1.2" stroke-linecap="round" stroke-linejoin="round" stroke-miterlimit="10" x1="65.42" y1="40.68" x2="65.42" y2="45.42"/>
<line fill="none" stroke="#000000" stroke-width="1.2" stroke-linecap="round" stroke-linejoin="round" stroke-miterlimit="10" x1="65.42" y1="45.42" x2="81.92" y2="61.92"/>
<line fill="none" stroke="#000000" stroke-width="2.34" stroke-linecap="round" stroke-linejoin="round" stroke-miterlimit="10" x1="72.62" y1="40.68" x2="72.62" y2="39.54"/>
<line fill="none" stroke="#000000" stroke-width="2.34" stroke-linecap="round" stroke-linejoin="round" stroke-miterlimit="10" x1="72.62" y1="39.54" x2="73.34" y2="38.88"/>
<line fill="none" stroke="#000000" stroke-width="1.2" stroke-linecap="round" stroke-linejoin="round" stroke-miterlimit="10" x1="51.02" y1="40.68" x2="47.96" y2="40.68"/>
<line fill="none" stroke="#000000" stroke-width="1.2" stroke-linecap="round" stroke-linejoin="round" stroke-miterlimit="10" x1="47.96" y1="40.68" x2="42.56" y2="46.08"/>
<line fill="none" stroke="#000000" stroke-width="1.2" stroke-linecap="round" stroke-linejoin="round" stroke-miterlimit="10" x1="42.56" y1="46.08" x2="42.56" y2="61.32"/>
<line fill="none" stroke="#000000" stroke-width="1.2" stroke-linecap="round" stroke-linejoin="round" stroke-miterlimit="10" x1="42.56" y1="61.32" x2="49.52" y2="68.28"/>
<line fill="none" stroke="#000000" stroke-width="1.2" stroke-linecap="round" stroke-linejoin="round" stroke-miterlimit="10" x1="49.52" y1="68.28" x2="58.28" y2="68.28"/>
<line fill="none" stroke="#000000" stroke-width="1.2" stroke-linecap="round" stroke-linejoin="round" stroke-miterlimit="10" x1="58.28" y1="68.28" x2="58.58" y2="67.979"/>
<line fill="none" stroke="#000000" stroke-width="1.2" stroke-linecap="round" stroke-linejoin="round" stroke-miterlimit="10" x1="50.78" y1="53.28" x2="57.74" y2="60.24"/>
<line fill="none" stroke="#000000" stroke-width="1.2" stroke-linecap="round" stroke-linejoin="round" stroke-miterlimit="10" x1="57.74" y1="60.24" x2="73.4" y2="60.24"/>
<line fill="none" stroke="#000000" stroke-width="1.2" stroke-linecap="round" stroke-linejoin="round" stroke-miterlimit="10" x1="73.4" y1="60.24" x2="81.2" y2="67.979"/>
<line fill="none" stroke="#000000" stroke-width="1.2" stroke-linecap="round" stroke-linejoin="round" stroke-miterlimit="10" x1="79.82" y1="40.68" x2="81.62" y2="42.54"/>
<line fill="none" stroke="#000000" stroke-width="1.2" stroke-linecap="round" stroke-linejoin="round" stroke-miterlimit="10" x1="81.62" y1="42.96" x2="81.62" y2="42.54"/>
<circle fill-rule="evenodd" clip-rule="evenodd" cx="50.96" cy="47.22" r="1.86"/>
<circle fill="none" stroke="#000000" stroke-width="0" stroke-linecap="round" stroke-linejoin="round" stroke-miterlimit="10" cx="50.96" cy="47.22" r="1.86"/>
<circle fill="none" stroke="#000000" stroke-width="0.06" stroke-linecap="square" stroke-linejoin="bevel" stroke-miterlimit="10" cx="50.96" cy="47.22" r="1.14"/>
<circle fill-rule="evenodd" clip-rule="evenodd" cx="73.34" cy="67.86" r="1.86"/>
<circle fill="none" stroke="#000000" stroke-width="0" stroke-linecap="round" stroke-linejoin="round" stroke-miterlimit="10" cx="73.34" cy="67.86" r="1.86"/>
<circle fill="none" stroke="#000000" stroke-width="0.06" stroke-linecap="square" stroke-linejoin="bevel" stroke-miterlimit="10" cx="73.34" cy="67.86" r="1.14"/>
<circle fill-rule="evenodd" clip-rule="evenodd" cx="81.98" cy="61.92" r="1.86"/>
<circle fill="none" stroke="#000000" stroke-width="0" stroke-linecap="round" stroke-linejoin="round" stroke-miterlimit="10" cx="81.98" cy="61.92" r="1.86"/>
<circle fill="none" stroke="#000000" stroke-width="0.06" stroke-linecap="square" stroke-linejoin="bevel" stroke-miterlimit="10" cx="81.98" cy="61.92" r="1.14"/>
<circle fill-rule="evenodd" clip-rule="evenodd" cx="73.4" cy="38.88" r="1.86"/>
<circle fill="none" stroke="#000000" stroke-width="0" stroke-linecap="round" stroke-linejoin="round" stroke-miterlimit="10" cx="73.4" cy="38.88" r="1.86"/>
<circle fill="none" stroke="#000000" stroke-width="0.06" stroke-linecap="square" stroke-linejoin="bevel" stroke-miterlimit="10" cx="73.4" cy="38.88" r="1.14"/>
<circle fill-rule="evenodd" clip-rule="evenodd" cx="58.64" cy="67.979" r="1.86"/>
<circle fill="none" stroke="#000000" stroke-width="0" stroke-linecap="round" stroke-linejoin="round" stroke-miterlimit="10" cx="58.64" cy="67.979" r="1.86"/>
<circle fill="none" stroke="#000000" stroke-width="0.06" stroke-linecap="square" stroke-linejoin="bevel" stroke-miterlimit="10" cx="58.64" cy="67.979" r="1.14"/>
<circle fill-rule="evenodd" clip-rule="evenodd" cx="81.26" cy="67.979" r="1.86"/>
<circle fill="none" stroke="#000000" stroke-width="0" stroke-linecap="round" stroke-linejoin="round" stroke-miterlimit="10" cx="81.26" cy="67.979" r="1.86"/>
<circle fill="none" stroke="#000000" stroke-width="0.06" stroke-linecap="square" stroke-linejoin="bevel" stroke-miterlimit="10" cx="81.26" cy="67.979" r="1.14"/>
<circle fill-rule="evenodd" clip-rule="evenodd" cx="50.84" cy="53.28" r="1.86"/>
<circle fill="none" stroke="#000000" stroke-width="0" stroke-linecap="round" stroke-linejoin="round" stroke-miterlimit="10" cx="50.84" cy="53.28" r="1.86"/>
<circle fill="none" stroke="#000000" stroke-width="0.06" stroke-linecap="square" stroke-linejoin="bevel" stroke-miterlimit="10" cx="50.84" cy="53.28" r="1.14"/>
<circle fill-rule="evenodd" clip-rule="evenodd" cx="81.68" cy="42.96" r="1.86"/>
<circle fill="none" stroke="#000000" stroke-width="0" stroke-linecap="round" stroke-linejoin="round" stroke-miterlimit="10" cx="81.68" cy="42.96" r="1.86"/>
<circle fill="none" stroke="#000000" stroke-width="0.06" stroke-linecap="square" stroke-linejoin="bevel" stroke-miterlimit="10" cx="81.68" cy="42.96" r="1.14"/>
<line fill="none" stroke="#000000" stroke-width="0" stroke-linecap="round" stroke-linejoin="round" stroke-miterlimit="10" x1="113.84" y1="70.68" x2="113.78" y2="70.68"/>
<rect x="37.5" y="32.625" fill="none" stroke="#000000" stroke-width="0.1" stroke-linecap="round" stroke-linejoin="round" stroke-miterlimit="10" width="81.938" height="40.812"/>
</svg>
